REM DIRINDEX 1\4,1\2\5,1\2\6,1\3\7,1\3\8
REM DIRNAME cjc124,folder01,folder02,folder03,folder04,folder05,folder06,folder07
TITLE ""
FILE "074_Day37_Check3_Sentences.mp3" MP3
  TRACK 01 AUDIO
    TITLE "0:"
    INDEX 01 00:00:00
  TRACK 02 AUDIO
    TITLE "4:cjc124_2412"
    INDEX 01 00:00:25
  TRACK 03 AUDIO
    TITLE "0:"
    INDEX 01 00:02:00
  TRACK 04 AUDIO
    TITLE "7:cjc124_2413"
    INDEX 01 00:02:47
  TRACK 05 AUDIO
    TITLE "0:"
    INDEX 01 00:05:34
  TRACK 06 AUDIO
    TITLE "8:cjc124_2414"
    INDEX 01 00:05:54
  TRACK 07 AUDIO
    TITLE "0:"
    INDEX 01 00:08:26
  TRACK 08 AUDIO
    TITLE "7:cjc124_2415"
    INDEX 01 00:08:64
  TRACK 09 AUDIO
    TITLE "0:"
    INDEX 01 00:10:10
  TRACK 10 AUDIO
    TITLE "8:cjc124_2416"
    INDEX 01 00:10:31
  TRACK 11 AUDIO
    TITLE "0:"
    INDEX 01 00:12:16
  TRACK 12 AUDIO
    TITLE "7:cjc124_2417"
    INDEX 01 00:12:54
  TRACK 13 AUDIO
    TITLE "0:"
    INDEX 01 00:15:72
  TRACK 14 AUDIO
    TITLE "8:cjc124_2418"
    INDEX 01 00:16:14
  TRACK 15 AUDIO
    TITLE "0:"
    INDEX 01 00:19:26
  TRACK 16 AUDIO
    TITLE "7:cjc124_2419"
    INDEX 01 00:19:63
  TRACK 17 AUDIO
    TITLE "0:"
    INDEX 01 00:22:48
  TRACK 18 AUDIO
    TITLE "8:cjc124_2420"
    INDEX 01 00:22:64
  TRACK 19 AUDIO
    TITLE "0:"
    INDEX 01 00:25:37
  TRACK 20 AUDIO
    TITLE "7:cjc124_2421"
    INDEX 01 00:26:03
  TRACK 21 AUDIO
    TITLE "0:"
    INDEX 01 00:29:09
  TRACK 22 AUDIO
    TITLE "8:cjc124_2422"
    INDEX 01 00:29:25
  TRACK 23 AUDIO
    TITLE "0:"
    INDEX 01 00:31:67
  TRACK 24 AUDIO
    TITLE "7:cjc124_2423"
    INDEX 01 00:32:31
  TRACK 25 AUDIO
    TITLE "0:"
    INDEX 01 00:34:71
  TRACK 26 AUDIO
    TITLE "8:cjc124_2424"
    INDEX 01 00:35:15
  TRACK 27 AUDIO
    TITLE "0:"
    INDEX 01 00:37:22
  TRACK 28 AUDIO
    TITLE "7:cjc124_2425"
    INDEX 01 00:37:57
  TRACK 29 AUDIO
    TITLE "0:"
    INDEX 01 00:40:24
  TRACK 30 AUDIO
    TITLE "8:cjc124_2426"
    INDEX 01 00:40:46
  TRACK 31 AUDIO
    TITLE "0:"
    INDEX 01 00:43:40
  TRACK 32 AUDIO
    TITLE "7:cjc124_2427"
    INDEX 01 00:44:03
  TRACK 33 AUDIO
    TITLE "0:"
    INDEX 01 00:46:33
  TRACK 34 AUDIO
    TITLE "8:cjc124_2428"
    INDEX 01 00:46:54
  TRACK 35 AUDIO
    TITLE "0:"
    INDEX 01 00:49:25
  TRACK 36 AUDIO
    TITLE "7:cjc124_2429"
    INDEX 01 00:49:69
  TRACK 37 AUDIO
    TITLE "0:"
    INDEX 01 00:53:11
  TRACK 38 AUDIO
    TITLE "8:cjc124_2430"
    INDEX 01 00:53:29
  TRACK 39 AUDIO
    TITLE "0:"
    INDEX 01 00:56:65
  TRACK 40 AUDIO
    TITLE "7:cjc124_2431"
    INDEX 01 00:57:31
  TRACK 41 AUDIO
    TITLE "0:"
    INDEX 01 01:00:31
  TRACK 42 AUDIO
    TITLE "8:cjc124_2432"
    INDEX 01 01:00:49
  TRACK 43 AUDIO
    TITLE "0:"
    INDEX 01 01:03:37
  TRACK 44 AUDIO
    TITLE "7:cjc124_2433"
    INDEX 01 01:04:01
  TRACK 45 AUDIO
    TITLE "0:"
    INDEX 01 01:06:28
  TRACK 46 AUDIO
    TITLE "8:cjc124_2434"
    INDEX 01 01:06:45
  TRACK 47 AUDIO
    TITLE "0:"
    INDEX 01 01:09:01
  TRACK 48 AUDIO
    TITLE "7:cjc124_2435"
    INDEX 01 01:09:38
  TRACK 49 AUDIO
    TITLE "0:"
    INDEX 01 01:11:70
  TRACK 50 AUDIO
    TITLE "8:cjc124_2436"
    INDEX 01 01:12:11
  TRACK 51 AUDIO
    TITLE "0:"
    INDEX 01 01:15:17
  TRACK 52 AUDIO
    TITLE "7:cjc124_2437"
    INDEX 01 01:15:54
  TRACK 53 AUDIO
    TITLE "0:"
    INDEX 01 01:18:41
  TRACK 54 AUDIO
    TITLE "8:cjc124_2438"
    INDEX 01 01:18:62
  TRACK 55 AUDIO
    TITLE "0:"
    INDEX 01 01:21:20
  TRACK 56 AUDIO
    TITLE "7:cjc124_2439"
    INDEX 01 01:21:57
  TRACK 57 AUDIO
    TITLE "0:"
    INDEX 01 01:23:73
  TRACK 58 AUDIO
    TITLE "8:cjc124_2440"
    INDEX 01 01:24:14
  TRACK 59 AUDIO
    TITLE "0:"
    INDEX 01 01:26:29
  TRACK 60 AUDIO
    TITLE "7:cjc124_2441"
    INDEX 01 01:26:66
  TRACK 61 AUDIO
    TITLE "0:"
    INDEX 01 01:29:09
  TRACK 62 AUDIO
    TITLE "8:cjc124_2442"
    INDEX 01 01:29:27
  TRACK 63 AUDIO
    TITLE "0:"
    INDEX 01 01:32:10
  TRACK 64 AUDIO
    TITLE "7:cjc124_2443"
    INDEX 01 01:32:45
  TRACK 65 AUDIO
    TITLE "0:"
    INDEX 01 01:35:35
  TRACK 66 AUDIO
    TITLE "8:cjc124_2444"
    INDEX 01 01:35:53
  TRACK 67 AUDIO
    TITLE "0:"
    INDEX 01 01:38:24
